<mxfile host="app.diagrams.net" modified="2022-02-07T09:50:24.737Z" agent="5.0 (X11)" etag="lPFMPKuwxLAGCF9t7rm2" version="16.5.2" type="github">
  <diagram id="UbfRg1ba8WL3_FIAAOTX" name="Page-1">
    <mxGraphModel dx="653" dy="910" grid="1" gridSize="10" guides="1" tooltips="1" connect="1" arrows="1" fold="1" page="1" pageScale="1" pageWidth="850" pageHeight="1100" math="0" shadow="0">
      <root>
        <mxCell id="0" />
        <mxCell id="1" parent="0" />
        <mxCell id="m0vQvB1hzGrPslnCe_K4-6" style="edgeStyle=orthogonalEdgeStyle;rounded=0;orthogonalLoop=1;jettySize=auto;html=1;exitX=0.5;exitY=1;exitDx=0;exitDy=0;" edge="1" parent="1" source="h597xie00PFjeSieC9ee-1" target="m0vQvB1hzGrPslnCe_K4-3">
          <mxGeometry relative="1" as="geometry" />
        </mxCell>
        <mxCell id="m0vQvB1hzGrPslnCe_K4-12" style="edgeStyle=orthogonalEdgeStyle;rounded=0;orthogonalLoop=1;jettySize=auto;html=1;exitX=0.5;exitY=1;exitDx=0;exitDy=0;" edge="1" parent="1" source="h597xie00PFjeSieC9ee-1" target="m0vQvB1hzGrPslnCe_K4-1">
          <mxGeometry relative="1" as="geometry" />
        </mxCell>
        <mxCell id="h597xie00PFjeSieC9ee-1" value="Brazo" style="ellipse;whiteSpace=wrap;html=1;fillColor=#9933FF;" parent="1" vertex="1">
          <mxGeometry x="180" y="110" width="120" height="80" as="geometry" />
        </mxCell>
        <mxCell id="h597xie00PFjeSieC9ee-4" value="Cubo" style="ellipse;whiteSpace=wrap;html=1;fillColor=#8CFFF7;" parent="1" vertex="1">
          <mxGeometry x="190" y="690" width="120" height="80" as="geometry" />
        </mxCell>
        <mxCell id="m0vQvB1hzGrPslnCe_K4-11" style="edgeStyle=orthogonalEdgeStyle;rounded=0;orthogonalLoop=1;jettySize=auto;html=1;exitX=0.5;exitY=1;exitDx=0;exitDy=0;" edge="1" parent="1" source="m0vQvB1hzGrPslnCe_K4-1" target="m0vQvB1hzGrPslnCe_K4-5">
          <mxGeometry relative="1" as="geometry" />
        </mxCell>
        <mxCell id="m0vQvB1hzGrPslnCe_K4-1" value="E[50,1,1]" style="ellipse;whiteSpace=wrap;html=1;fillColor=#d5e8d4;strokeColor=#82b366;" vertex="1" parent="1">
          <mxGeometry x="70" y="460" width="120" height="80" as="geometry" />
        </mxCell>
        <mxCell id="m0vQvB1hzGrPslnCe_K4-9" style="edgeStyle=orthogonalEdgeStyle;rounded=0;orthogonalLoop=1;jettySize=auto;html=1;exitX=0.5;exitY=1;exitDx=0;exitDy=0;" edge="1" parent="1" source="m0vQvB1hzGrPslnCe_K4-2" target="m0vQvB1hzGrPslnCe_K4-5">
          <mxGeometry relative="1" as="geometry" />
        </mxCell>
        <mxCell id="m0vQvB1hzGrPslnCe_K4-2" value="E[75,1,1]" style="ellipse;whiteSpace=wrap;html=1;fillColor=#d5e8d4;strokeColor=#82b366;" vertex="1" parent="1">
          <mxGeometry x="320" y="460" width="120" height="80" as="geometry" />
        </mxCell>
        <mxCell id="m0vQvB1hzGrPslnCe_K4-7" style="edgeStyle=orthogonalEdgeStyle;rounded=0;orthogonalLoop=1;jettySize=auto;html=1;exitX=0.5;exitY=1;exitDx=0;exitDy=0;" edge="1" parent="1" source="m0vQvB1hzGrPslnCe_K4-3" target="m0vQvB1hzGrPslnCe_K4-4">
          <mxGeometry relative="1" as="geometry" />
        </mxCell>
        <mxCell id="m0vQvB1hzGrPslnCe_K4-3" value="Ry[&lt;span title=&quot;Greek-language text&quot;&gt;&lt;span lang=&quot;el&quot;&gt;α]&lt;/span&gt;&lt;/span&gt;" style="ellipse;whiteSpace=wrap;html=1;fillColor=#FFD966;" vertex="1" parent="1">
          <mxGeometry x="305" y="230" width="120" height="80" as="geometry" />
        </mxCell>
        <mxCell id="m0vQvB1hzGrPslnCe_K4-8" style="edgeStyle=orthogonalEdgeStyle;rounded=0;orthogonalLoop=1;jettySize=auto;html=1;exitX=0.5;exitY=1;exitDx=0;exitDy=0;" edge="1" parent="1" source="m0vQvB1hzGrPslnCe_K4-4" target="m0vQvB1hzGrPslnCe_K4-2">
          <mxGeometry relative="1" as="geometry" />
        </mxCell>
        <mxCell id="m0vQvB1hzGrPslnCe_K4-4" value="T[50,0,0]" style="ellipse;whiteSpace=wrap;html=1;fillColor=#d5e8d4;strokeColor=#82b366;" vertex="1" parent="1">
          <mxGeometry x="320" y="330" width="120" height="80" as="geometry" />
        </mxCell>
        <mxCell id="m0vQvB1hzGrPslnCe_K4-10" style="edgeStyle=orthogonalEdgeStyle;rounded=0;orthogonalLoop=1;jettySize=auto;html=1;exitX=0.5;exitY=1;exitDx=0;exitDy=0;" edge="1" parent="1" source="m0vQvB1hzGrPslnCe_K4-5" target="h597xie00PFjeSieC9ee-4">
          <mxGeometry relative="1" as="geometry" />
        </mxCell>
        <mxCell id="m0vQvB1hzGrPslnCe_K4-5" value="T[12&#39;5,12&#39;5,12&#39;5]" style="ellipse;whiteSpace=wrap;html=1;fillColor=#d5e8d4;strokeColor=#82b366;" vertex="1" parent="1">
          <mxGeometry x="200" y="560" width="120" height="80" as="geometry" />
        </mxCell>
        <mxCell id="m0vQvB1hzGrPslnCe_K4-13" value="El cubo está centrado en el origen así que lo pongo con las aristas en los ejes" style="text;html=1;strokeColor=none;fillColor=none;align=center;verticalAlign=middle;whiteSpace=wrap;rounded=0;" vertex="1" parent="1">
          <mxGeometry x="320" y="620" width="140" height="90" as="geometry" />
        </mxCell>
      </root>
    </mxGraphModel>
  </diagram>
</mxfile>
